<svg opacity="0.42" viewBox="120 366.40000000000003 556.8 320" xmlns:xlink="http://www.w3.org/1999/xlink" version="1.1" xmlns="http://www.w3.org/2000/svg" style="max-height: 500px" width="556.8" height="320"><defs><linearGradient id="uundulate-grad" y2="100%" x2="50%" y1="0%" x1="50%"><stop offset="45%" stop-opacity="1" stop-color="hsl(39, 28%, 78%)"/><stop offset="100%" stop-opacity="1" stop-color="hsl(39, 94%, 49%)"/></linearGradient></defs><g fill="none" stroke="url(#uundulate-grad)" stroke-width="2"><path d="M621.6760442387496 203.42079945393368C666.1363524944886 308.5435883964079 700.731515415395 598.8600442529832 649.4581685453395 655.0338979231184C598.184821675284 711.2077515932536 484.67406507478063 555.5124166444427 375.5639792624827 473.0552970705835C266.4538934501848 390.598177496724 113.12877546811967 326.4503044001234 125.72975664630911 259.2397239685938C138.33073782449856 192.02914353706421 332.72654566936706 162.0734536064624 436.048688917792 150.44451099924146C539.370832166217 138.81556839202057 577.2157359830105 98.29801051145938 621.6760442387496 203.42079945393368C666.1363524944886 308.5435883964079 700.731515415395 598.8600442529832 649.4581685453395 655.0338979231184"/><path d="M611.5997979873966 212.35624262950057C654.0391831406021 312.70072298368063 687.0618386560127 589.8209763013206 638.1190984618688 643.4414729864498C589.1763582677248 697.0619696715787 480.8251815126989 548.4436954022594 376.6746450555055 469.7346267181208C272.52410859831207 391.0255580339823 126.16831416088621 329.7934973508635 138.19652346733983 265.6379433025853C150.2247327737934 201.48238925430707 335.78436753480423 172.88832159327802 434.4100497264826 161.7879672863853C533.035731918161 150.68761297949266 569.1604128341912 112.01176227532056 611.5997979873966 212.35624262950057C654.0391831406021 312.70072298368063 687.0618386560127 589.8209763013206 638.1190984618688 643.4414729864498"/><path d="M601.5236127711999 221.29164002870033C641.9420748218718 316.85781179458604 673.3922229317866 580.7818625732907 626.7800894135544 631.8490022734138C580.1679558953219 682.9161419735367 476.97635898577346 541.3749283837087 377.78537188368455 466.41391058929105C278.5943847815955 391.4528927948734 139.20791388880906 333.13664452523653 150.66335132352674 272.0361168602096C162.11878875824448 210.93558919518267 338.84225043539755 183.70314380372645 432.77147157032937 173.13137779716203C526.7006927052612 162.55961179059756 561.1051507205281 125.72546826281462 601.5236127711999 221.29164002870033C641.9420748218718 316.85781179458604 673.3922229317866 580.7818625732907 626.7800894135544 631.8490022734138"/><path d="M591.4474275550032 230.2270679454782C629.8449665031414 321.0149311230697 659.7226072075606 571.7427793628391 615.4410803652399 620.256562077956C571.1595535229192 668.7703447930728 473.1275364588481 534.3061918827361 378.8960987118636 463.0932249780394C284.66466096487903 391.8802580733426 152.2475136167319 336.4798222171876 163.1301791797137 278.434320935412C174.0128447426955 220.38881965363646 341.900133335991 194.517996531753 431.13289341417624 184.47481882551682C520.3656534923614 174.43164111928058 553.0498886068649 139.4392047678868 591.4474275550032 230.2270679454782C629.8449665031414 321.0149311230697 659.7226072075606 571.7427793628391 615.4410803652399 620.256562077956"/><path d="M581.3712881151737 239.1624958622561C617.7479039607783 325.1720504515532 646.0530372597018 562.7036961523875 604.1021170932927 608.6641218824982C562.1511969268836 654.6245476126089 469.27875970828995 527.2374553817635 380.00687131640984 459.77253936678767C290.73498292452973 392.3076233518118 165.2871591210219 339.8229999091386 175.5970528122678 284.8325250106144C185.90694650351378 229.8420501120902 344.9580620129516 205.3328492597796 429.4943610343902 195.8182598538716C514.0306600558288 186.30367044796355 544.994672269569 153.1529412729589 581.3712881151737 239.1624958622561C617.7479039607783 325.1720504515532 646.0530372597018 562.7036961523875 604.1021170932927 608.6641218824982"/><path d="M571.295118157766 248.0978780026668C605.6508109008371 329.3291240036697 632.3834367942648 553.6645671655687 592.7631233037673 597.0716359106732C553.1428098132699 640.4787046557777 465.42995244015356 520.1686731044239 381.11761340337796 456.45180797916896C296.8052743666023 392.7349428539138 178.3267741077338 343.16613182472247 188.06389592724383 291.23068330944966C197.80101774675387 239.29523479417674 348.0159601723341 216.14765621143897 427.8557981370261 207.1616551058592C507.69563610171804 198.1756540002794 536.9394254146949 166.8666320016639 571.295118157766 248.0978780026668C605.6508109008371 329.3291240036697 632.3834367942648 553.6645671655687 592.7631233037673 597.0716359106732"/><path d="M561.2188719064131 257.0333211782337C593.5536415469505 333.48625859094227 618.7137600348824 544.6254992139061 581.4240532202966 585.4792109740044C544.1343464057106 626.3329227341028 461.58106887807185 513.0999518622403 382.22827919640076 453.1311376267063C302.87548951472957 393.1623233911721 191.3663128005004 346.50932477546263 200.53066274827455 297.6289026434411C209.6950126960487 248.7484805114196 351.0737820377712 226.96252419825458 426.2171589457166 218.50511139300306C501.3605358536621 210.04769858775148 528.8841022658755 180.58038376552514 561.2188719064131 257.0333211782337C593.5536415469505 333.48625859094227 618.7137600348824 544.6254992139061 581.4240532202966 585.4792109740044"/><path d="M551.1426866902164 265.96871857743344C581.4565332282202 337.64334740184773 605.0441443106564 535.5863854858762 570.0850441719822 573.8867402609685C535.1259440333079 612.1870950360607 457.7322463511465 506.03118484368974 383.3390060245798 449.8104214978764C308.9457656980131 393.5896581520633 204.4059125284232 349.85247194983555 212.99749060446146 304.02707620106537C221.58906868049974 258.2016804522952 354.13166493836457 237.77734640870307 424.5785807895635 229.84852190377973C495.0254966407623 221.91969739885639 520.8288401522125 194.2940897530192 551.1426866902164 265.96871857743344C581.4565332282202 337.64334740184773 605.0441443106564 535.5863854858762 570.0850441719822 573.8867402609685"/><path d="M541.0665014740196 274.90413123542226C569.3594249094899 341.80045147154226 591.3745285864304 526.5472870166357 558.7460351236678 562.2942848067216C526.1175416609051 598.0412825968077 453.88342382422115 498.9624330839281 384.44973285275887 446.4897206278357C315.0160418812966 394.0170081717433 217.44551225634603 353.1956343829976 225.46431846064843 310.42526501747875C233.48312466495082 267.6548956519599 357.189547838958 248.59218387794056 422.94000263341024 241.19194767334545C488.6904574278626 233.7917114687503 512.7735780385494 208.00781099930225 541.0665014740196 274.90413123542226C569.3594249094899 341.80045147154226 591.3745285864304 526.5472870166357 558.7460351236678 562.2942848067216"/><path d="M530.9904078105574 283.83955915220014C557.262408143494 345.95757080002585 577.7050044149387 517.5082038061839 547.4071176280877 550.7018446112638C517.1092308412367 583.8954854163437 450.03469285003007 491.8936965829555 385.5605512336723 443.1690350165841C321.0864096173144 394.44437345021265 230.48520353700326 356.5388120749486 237.9312378695697 316.82346909268114C245.37727220213623 277.10812611041365 360.2475222922858 259.4070366059671 421.3015160299915 252.53538870170024C482.3555097676972 245.66374079743332 504.71840747762053 221.72154750437443 530.9904078105574 283.83955915220014C557.262408143494 345.95757080002585 577.7050044149387 517.5082038061839 547.4071176280877 550.7018446112638"/><path d="M520.9141463004153 292.7750023277671C545.1652235308184 350.1147053872985 564.0353123967673 508.46913585452126 536.0680322858279 539.1094196745951C508.1007521748885 569.7497034946689 446.1857940291594 484.8249753407721 386.67120176790604 439.8483646641215C327.1566095066526 394.8717539874709 243.52472697098074 359.8820050256888 250.39798943181137 323.22168842667264C257.271251892642 286.5613718276565 363.30532889893385 270.2219045927827 419.66286157989293 263.8788449888441C476.0203942608521 257.5357853849054 496.66306907001217 235.43529926823567 520.9141463004153 292.7750023277671C545.1652235308184 350.1147053872985 564.0353123967673 508.46913585452126 536.0680322858279 539.1094196745951"/><path d="M510.83797634300754 301.7104149857559C533.0681304708771 354.271809456993 550.3657119313303 499.4300373852807 524.7290384963026 527.5169642203482C499.0923650612748 555.6038910554159 442.3369867610231 477.75622358101043 387.78194385487416 436.5276637940808C333.2269009487252 395.2991040071511 256.56434195769265 363.22516745885076 262.8648325467874 329.61987724308597C269.1653231358821 296.01458702732117 366.36322705831634 281.03674206202027 418.0242986825288 275.2222707584098C469.68537030674133 269.4077994547994 488.60782221513807 249.14902051451872 510.83797634300754 301.7104149857559C533.0681304708771 354.271809456993 550.3657119313303 499.4300373852807 524.7290384963026 527.5169642203482"/><path d="M500.761821644389 310.64585816132285C520.9710526697249 358.4289440442657 536.6961267246824 490.390969433618 513.3900599655663 515.9245392836796C490.08399320645003 541.458109133741 438.4881947516758 470.687502338827 388.89270120063134 433.2069934416181C339.2972076495868 395.72648454440935 269.6039722031936 366.5683604095909 275.33169092055243 336.0180965770775C281.0594096379113 305.467832744564 369.42114047648784 291.8516100488359 416.38575104395375 286.5657270455537C463.35036161141966 281.2798440422714 480.55259061905303 262.86277227837996 500.761821644389 310.64585816132285C520.9710526697249 358.4289440442657 536.6961267246824 490.390969433618 513.3900599655663 515.9245392836796"/><path d="M490.6856364281923 319.5812403017335C508.87394435099463 362.5860175963821 523.0265110004564 481.3518404467992 502.0510509172518 504.33205331185457C481.07559083404726 527.3122661769099 434.63937222475045 463.61872006148724 390.0034280288104 429.8862620539993C345.36748383287033 396.15380404651137 282.6435719311164 369.9114923251748 287.7985187767394 342.41625487591267C292.95346562236233 314.92101742665056 372.47902337708126 302.66641700049524 414.74717288780056 297.9091222975413C457.01532239851986 293.15182759458725 472.49732850539 276.57646300708495 490.6856364281923 319.5812403017335C508.87394435099463 362.5860175963821 523.0265110004564 481.3518404467992 502.0510509172518 504.33205331185457"/><path d="M480.60945121199563 328.51666821851137C496.7768360322643 366.74313692486567 509.35689527623026 472.3127572363476 490.7120418689374 492.73961311639675C472.0671884616444 513.1664689964459 430.790549697825 456.54998356051465 391.11415485698944 426.56557644274767C351.43776001615385 396.5811693249806 295.68317165903926 373.2546700171258 300.2653466329263 348.81445895111506C304.8475216068134 324.3742478851043 375.5369062776747 313.48126972852185 413.1085947316474 309.25256332589606C450.6802831856201 305.0238569232703 464.4420663917268 290.2901995121571 480.60945121199563 328.51666821851137C496.7768360322643 366.74313692486567 509.35689527623026 472.3127572363476 490.7120418689374 492.73961311639675"/><path d="M470.5332812545879 337.4520656177111C484.6797429723231 370.90022573577113 495.68729481079333 463.27364350831783 479.373048079412 481.1471424033608C463.05880134803067 499.0206412984039 426.9417424296887 449.48121654196405 392.22489694395756 423.24486031391785C357.5080514582264 397.00850408587166 308.7227866457511 376.5978171914988 312.73218974790234 355.2126325087394C316.7415928500535 333.82744782597996 378.5948044370571 324.2960919389703 411.47003183428325 320.5959738366727C444.34525923150943 316.8958557343752 456.38681953685284 304.0039054996511 470.5332812545879 337.4520656177111C484.6797429723231 370.90022573577113 495.68729481079333 463.27364350831783 479.373048079412 481.1471424033608"/><path d="M460.45708077960217 346.387493534489C472.5826193948037 375.0573450642547 482.01766382777816 454.2345602978661 468.0340237723085 469.554702207903C454.0503837168388 484.8748441179399 423.09290464397424 442.4124800409915 393.33560851334755 419.9241747026662C363.57831238272087 397.43586936434093 321.7623711148849 379.94099488344983 325.1990023453002 361.61083658394176C328.63563357571553 343.2806782844337 381.6526720788614 335.11094466699683 409.831438419341 331.9394148650275C438.01020475982057 328.76788506305815 448.3315421644006 317.7176420047233 460.45708077960217 346.387493534489C472.5826193948037 375.0573450642547 482.01766382777816 454.2345602978661 468.0340237723085 469.554702207903"/><path d="M450.3809108221945 355.3229214512669C460.48552633486247 379.2144643927383 468.3480633623412 445.1954770874145 456.6950299827831 457.96226201244525C445.041996603225 470.72904693747597 419.2440973758379 435.343743540019 394.44635060031567 416.60348909141453C369.64860382479344 397.86323464281014 334.8019861015968 383.28417257540093 337.6658454602762 368.0090406591442C340.5297048189556 352.7339087428875 384.7105702382439 345.92579739502344 408.1928755219769 343.2828558933823C431.67518080570983 340.6399143917412 440.2762953095265 331.4313785097954 450.3809108221945 355.3229214512669C460.48552633486247 379.2144643927383 468.3480633623412 445.1954770874145 456.6950299827831 457.96226201244525"/><path d="M440.3047256059978 364.2583341092557C448.38841801613216 383.37156846243283 454.67844763811513 436.1563786181738 445.3560209344687 446.3698065581984C436.0335942308222 456.58323449822296 415.3952748489125 428.2749917802573 395.5570774284947 413.28278822137383C375.7188800080769 398.2905846624903 347.8415858295196 386.6273350085629 350.1326733164632 374.40722947555753C352.4237608034067 362.18712394255215 387.76845313883734 356.7406348642609 406.5542973658237 354.62628166294803C425.34014159281 352.51192846163514 432.2210331958634 345.14509975607854 440.3047256059978 364.2583341092557C448.38841801613216 383.37156846243283 454.67844763811513 436.1563786181738 445.3560209344687 446.3698065581984"/><path d="M430.2285403898011 373.1937467672445C436.29130969740186 387.52867253212736 441.0088319138891 427.11728014893305 434.01701188615425 434.7773511039515C427.02519185841936 442.43742205896996 411.54645232198715 421.2062400204958 396.6678042566738 409.9620873513331C381.7891561913604 398.71793468217044 360.88118555744245 389.97049744172494 362.5995011726501 380.8054182919709C364.31781678785774 371.6403391422169 390.8263360394307 367.5554723334984 404.9157192096705 365.96970743251376C419.0051023799103 364.3839425315291 424.1657710822003 358.85882100236165 430.2285403898011 373.1937467672445C436.29130969740186 387.52867253212736 441.0088319138891 427.11728014893305 434.01701188615425 434.7773511039515"/><path d="M420.1523704323934 382.1291594252333C424.1942166374606 391.6857766018219 427.3392314484521 418.07818167969236 422.6780180966289 423.1848956497047C418.01680474480565 428.29160961971695 407.6976450538508 414.13748826073413 397.7785463436419 406.6413864812924C387.859447633433 399.14528470185064 373.92080054415436 393.3136598748869 375.0663442876261 387.20360710838423C376.2118880310979 381.09355434188154 393.8842341988132 378.3703098027359 403.2771563123064 377.3131332020795C412.67007842579955 376.255956601423 416.11052422732627 372.57254224864477 420.1523704323934 382.1291594252333C424.1942166374606 391.6857766018219 427.3392314484521 418.07818167969236 422.6780180966289 423.1848956497047"/><path d="M410.07618521619673 391.0645873420112C412.0971083187303 395.8428959303055 413.66961572422605 409.0390984692407 411.33900904831444 411.5924554542469C409.0084023724028 414.145812439253 403.8488225269254 407.0687517597616 398.88927317182095 403.3207008700407C393.9297238167165 399.57264998031985 386.96040027207715 396.656837566838 387.53317214381303 393.6018111835867C388.1059440155489 390.54678480033533 396.9421170994066 389.1851625307625 401.6385781561532 388.6565742304343C406.3350392128998 388.12798593010604 408.0552621136631 386.2862787537169 410.07618521619673 391.0645873420112C412.0971083187303 395.8428959303055 413.66961572422605 409.0390984692407 411.33900904831444 411.5924554542469"/></g></svg>